<?xml version="1.0" encoding="UTF-8"?>
<svg version="1.1" xmlns="http://www.w3.org/2000/svg" viewBox="0 0 380 256" width="100%" height="100%">
<path d="M0 0 C0.33 28.05 0.66 56.1 1 85 C13.46394929 77.1460026 13.46394929 77.1460026 25.87109375 69.203125 C26.64904297 68.70039062 27.42699219 68.19765625 28.22851562 67.6796875 C29.76386209 66.68598846 31.29481353 65.68547905 32.82226562 64.6796875 C33.58087891 64.19242187 34.33949219 63.70515625 35.12109375 63.203125 C35.7752124 62.77676758 36.42933105 62.35041016 37.10327148 61.91113281 C39 61 39 61 43 61 C53.37106962 65.6481065 63.06205184 73.30228429 72.6328125 79.3984375 C73.63642822 80.03740967 74.64004395 80.67638184 75.67407227 81.3347168 C78.11619163 82.88958612 80.55816522 84.44468382 83 86 C82.9800145 85.22405487 82.96002899 84.44810974 82.93943787 83.64865112 C82.75881127 76.32206636 82.62194198 68.99656617 82.53369045 61.66833305 C82.4867911 57.90096664 82.42323504 54.13544506 82.32104492 50.36914062 C82.22296758 46.7314875 82.16938778 43.0956034 82.14610481 39.45672989 C82.12952345 38.07144435 82.09713802 36.68625172 82.04842949 35.30172348 C81.68370312 24.50102991 81.68370312 24.50102991 84.83114624 20.91186523 C87.15342877 19.3314728 89.43911472 18.14673453 92 17 C93.12889648 16.33129883 94.25779297 15.66259766 95.42089844 14.97363281 C96.4730957 14.38936523 97.52529297 13.80509766 98.609375 13.203125 C99.18407532 12.88341736 99.75877563 12.56370972 100.35089111 12.23431396 C101.54621417 11.57053484 102.7425664 10.90860563 103.93994141 10.24853516 C105.76365551 9.24246682 107.58316096 8.2290784 109.40234375 7.21484375 C110.57528038 6.56467019 111.74844923 5.91491535 112.921875 5.265625 C113.96956055 4.68586914 115.01724609 4.10611328 116.09667969 3.50878906 C119 2 119 2 124 0 C124 49.83 124 99.66 124 151 C117.99555639 154.0022218 112.42785127 156.76935866 106.1875 159 C104.81356977 159.50196877 103.43987547 160.00458371 102.06640625 160.5078125 C101.38980957 160.7543457 100.71321289 161.00087891 100.01611328 161.25488281 C95.81079719 162.80908779 91.64686937 164.4718307 87.4765625 166.1171875 C85 167 85 167 83 167 C83.03188416 166.33982376 83.06376831 165.67964752 83.09661865 164.99946594 C83.41100613 158.07144767 83.58123189 151.15005786 83.67138672 144.21557617 C83.72334663 141.63581492 83.81095616 139.05649914 83.93603516 136.47924805 C85.07377163 122.32832295 85.07377163 122.32832295 80.12817383 109.62026978 C75.41636928 105.48787002 70.08518588 102.7452546 64.4161377 100.14749146 C61.27338206 98.65490879 58.6328403 96.8495401 55.8125 94.81640625 C54.99265625 94.26275391 54.1728125 93.70910156 53.328125 93.13867188 C51.70594534 92.04043447 50.09192438 90.93009019 48.484375 89.81054688 C47.68515625 89.27623047 46.8859375 88.74191406 46.0625 88.19140625 C45.37285156 87.71904541 44.68320313 87.24668457 43.97265625 86.76000977 C42.00668243 85.75757865 42.00668243 85.75757865 40.0246582 86.69506836 C39.356521 87.1256958 38.68838379 87.55632324 38 88 C37.29254639 88.41636719 36.58509277 88.83273438 35.85620117 89.26171875 C33.29821194 90.83835802 30.7409984 92.41609282 28.1875 94 C27.25639404 94.57580811 26.32528809 95.15161621 25.3659668 95.74487305 C18.96206915 99.72537698 12.647657 103.81703283 6.4440918 108.10351562 C2.20670982 111 2.20670982 111 0 111 C0 134.1 0 157.2 0 181 C-31 181 -31 181 -41 179 C-41 127.19 -41 75.38 -41 22 C-33.41 17.71 -25.82 13.42 -18 9 C-11.44148941 5.25913162 -11.44148941 5.25913162 -4.88671875 1.51171875 C-2 0 -2 0 0 0 Z " fill="#051F4B" transform="translate(147,20)"/>
<path d="M0 0 C6.66261115 2.87004788 11.35911077 9.39777693 14 16 C17.55656197 30.42803863 13.98163689 43.68402896 6.75 56.28515625 C-13.1734677 87.1932144 -47.25355098 104.04655085 -80 118 C-81.04027344 118.47050781 -82.08054688 118.94101563 -83.15234375 119.42578125 C-108.10138661 130.08433613 -135.30226492 135.0801276 -162 139 C-163.17949219 139.18022705 -164.35898438 139.3604541 -165.57421875 139.54614258 C-176.4419449 141.07578049 -187.15981081 141.35856162 -198.125 141.3125 C-199.02663879 141.31067719 -199.92827759 141.30885437 -200.85723877 141.30697632 C-232.00259987 141.20104441 -267.51133926 137.35845976 -291.4375 115.1875 C-300.36793745 105.60267704 -303.35349174 96.35391489 -303.20703125 83.55859375 C-302.31108056 68.15838472 -292.44471509 56.45961482 -282 46 C-281.29230469 45.28070313 -280.58460938 44.56140625 -279.85546875 43.8203125 C-270.85419813 35.24931295 -259.50207931 29.23127679 -248.625 23.375 C-247.98868652 23.03210938 -247.35237305 22.68921875 -246.69677734 22.3359375 C-242.25484619 20 -242.25484619 20 -240 20 C-241.32956138 23.98868414 -243.81306421 24.95694525 -247.25 27 C-261.97583494 36.1621943 -277.22421534 48.54210775 -282 66 C-283.19159723 75.25703635 -282.7491327 83.40853159 -277 91 C-262.466704 107.90893093 -238.05734973 111.77097821 -217 114 C-210.29658495 114.46562739 -203.5907596 114.43561342 -196.875 114.375 C-195.99212311 114.37167664 -195.10924622 114.36835327 -194.19961548 114.3649292 C-179.30460266 114.2995156 -164.72539285 113.36362646 -150 111 C-148.46883545 110.75926758 -148.46883545 110.75926758 -146.90673828 110.51367188 C-100.65795135 103.05627993 -40.9971695 83.39308342 -11.125 45 C-4.71236561 36.07057899 -0.87618174 28.45562237 -0.8125 17.375 C-0.79832031 16.24835938 -0.78414063 15.12171875 -0.76953125 13.9609375 C-0.77206607 10.81273702 -0.77206607 10.81273702 -3 8 C-2.65358161 4.53581611 -1.96713413 2.95070119 0 0 Z " fill="#047AC6" transform="translate(335,96)"/>
<path d="M0 0 C4.57015831 1.82806332 6.87647372 4.58959926 9 9 C9.3409981 13.60347439 8.61060381 17.01040073 6.1875 20.9375 C2.15258094 24.74185226 -1.31350182 25.50306751 -6.74609375 25.38671875 C-11.25005635 24.6139418 -13.66801841 21.75579392 -16.375 18.1875 C-17.37303332 14.69438338 -17.77650152 11.5403205 -17 8 C-12.51615628 0.82034841 -8.23124813 -0.77167951 0 0 Z " fill="#06B7B8" transform="translate(324,76)"/>
<path d="M0 0 C4.29 0 8.58 0 13 0 C13 4.62 13 9.24 13 14 C8.71 14 4.42 14 0 14 C0 9.38 0 4.76 0 0 Z " fill="#132445" transform="translate(191,161)"/>
<path d="M0 0 C4.29 0 8.58 0 13 0 C13 4.62 13 9.24 13 14 C8.71 14 4.42 14 0 14 C0 9.38 0 4.76 0 0 Z " fill="#132340" transform="translate(172,161)"/>
<path d="M0 0 C4.29 0 8.58 0 13 0 C13 4.62 13 9.24 13 14 C8.71 14 4.42 14 0 14 C0 9.38 0 4.76 0 0 Z " fill="#152747" transform="translate(191,143)"/>
<path d="M0 0 C4.29 0 8.58 0 13 0 C13 4.62 13 9.24 13 14 C8.71 14 4.42 14 0 14 C0 9.38 0 4.76 0 0 Z " fill="#162746" transform="translate(172,143)"/>
<path d="M0 0 C0.66 0 1.32 0 2 0 C2 17.16 2 34.32 2 52 C4.64 51.34 7.28 50.68 10 50 C9.67 50.66 9.34 51.32 9 52 C6.03 52.66 3.06 53.32 0 54 C0 36.18 0 18.36 0 0 Z " fill="#061734" transform="translate(231,132)"/>
<path d="M0 0 C-1.36287072 4.08861216 -4.11306778 5.23798431 -7.625 7.375 C-8.90186193 8.17186423 -10.17791273 8.97002974 -11.453125 9.76953125 C-12.06607422 10.15189941 -12.67902344 10.53426758 -13.31054688 10.92822266 C-16.30243171 12.82625364 -19.15046546 14.89677212 -22 17 C-22 16.01 -22 15.02 -22 14 C-23.04800781 14.66708984 -23.04800781 14.66708984 -24.1171875 15.34765625 C-25.48230469 16.19650391 -25.48230469 16.19650391 -26.875 17.0625 C-27.77992187 17.63097656 -28.68484375 18.19945312 -29.6171875 18.78515625 C-30.40351562 19.18605469 -31.18984375 19.58695313 -32 20 C-32.66 19.67 -33.32 19.34 -34 19 C-26.12359822 13.50830211 -18.18281695 8.36651482 -9.6875 3.875 C-8.58547241 3.29020874 -8.58547241 3.29020874 -7.46118164 2.69360352 C-2.2700841 0 -2.2700841 0 0 0 Z " fill="#1D63D0" transform="translate(95,116)"/>
<path d="M0 0 C0.66 0.33 1.32 0.66 2 1 C0.27367637 3.06493703 -1.45593765 5.12696303 -3.1875 7.1875 C-3.67025391 7.76564453 -4.15300781 8.34378906 -4.65039062 8.93945312 C-6.9387104 11.65779272 -9.23801653 14.23734227 -11.7578125 16.75 C-14.11348904 18.93324733 -14.11348904 18.93324733 -15.6875 21.8125 C-16.120625 22.534375 -16.55375 23.25625 -17 24 C-17.66 24 -18.32 24 -19 24 C-15.57614367 14.29620618 -7.27535233 6.97221265 0 0 Z " fill="#1255C7" transform="translate(57,138)"/>
<path d="M0 0 C1.60407328 -0.02708567 3.2082785 -0.04643483 4.8125 -0.0625 C5.70582031 -0.07410156 6.59914063 -0.08570312 7.51953125 -0.09765625 C10 0 10 0 13 1 C13 1.99 13 2.98 13 4 C11.58297487 3.85769192 10.1663904 3.71099254 8.75 3.5625 C7.56664062 3.44068359 7.56664062 3.44068359 6.359375 3.31640625 C4.17635361 3.02365007 2.1226818 2.57935581 0 2 C0 1.34 0 0.68 0 0 Z " fill="#29C1BC" transform="translate(290,81)"/>
<path d="M0 0 C-1.16369126 3.49107379 -1.88973538 3.85222763 -4.9375 5.6875 C-5.64777344 6.12449219 -6.35804687 6.56148438 -7.08984375 7.01171875 C-9 8 -9 8 -11 8 C-11.33 7.01 -11.66 6.02 -12 5 C-10.37750059 4.16180842 -8.75191503 3.3295884 -7.125 2.5 C-6.22007813 2.0359375 -5.31515625 1.571875 -4.3828125 1.09375 C-2 0 -2 0 0 0 Z " fill="#316BD8" transform="translate(95,116)"/>
<path d="M0 0 C0.99 0.33 1.98 0.66 3 1 C2.01 1.495 2.01 1.495 1 2 C1.226875 2.763125 1.45375 3.52625 1.6875 4.3125 C1.790625 5.199375 1.89375 6.08625 2 7 C0.5625 8.8125 0.5625 8.8125 -1 10 C-1.66 9.34 -2.32 8.68 -3 8 C-2.64700993 4.55834679 -1.95418308 2.93127462 0 0 Z " fill="#13BFAE" transform="translate(335,96)"/>
<path d="M0 0 C0.66 0.66 1.32 1.32 2 2 C-1.96 6.29 -5.92 10.58 -10 15 C-10.66 14.67 -11.32 14.34 -12 14 C-11.30132812 13.24074219 -10.60265625 12.48148438 -9.8828125 11.69921875 C-8.96343578 10.69540947 -8.04417079 9.69149785 -7.125 8.6875 C-6.66480469 8.18798828 -6.20460938 7.68847656 -5.73046875 7.17382812 C-3.61393392 4.85790957 -1.74473617 2.61710426 0 0 Z " fill="#17BBB6" transform="translate(326,138)"/>
<path d="M0 0 C-6.25968955 4.14352972 -10.48130488 5.59672183 -18 5 C-14.81886649 2.87924433 -12.07995044 1.93982824 -8.4375 0.8125 C-7.28121094 0.44769531 -6.12492188 0.08289063 -4.93359375 -0.29296875 C-2 -1 -2 -1 0 0 Z " fill="#359BD3" transform="translate(241,194)"/>
<path d="M0 0 C0.99 0.33 1.98 0.66 3 1 C0.03 3.97 -2.94 6.94 -6 10 C-6 6.80366562 -5.66189865 5.65903784 -4 3 C-2.0625 1.1875 -2.0625 1.1875 0 0 Z " fill="#0CB3B1" transform="translate(328,165)"/>
<path d="M0 0 C0.33 0.66 0.66 1.32 1 2 C0.401875 2.886875 -0.19625 3.77375 -0.8125 4.6875 C-2.14749404 6.7090624 -3.43294891 8.76598653 -4.625 10.875 C-5.07875 11.57625 -5.5325 12.2775 -6 13 C-6.66 13 -7.32 13 -8 13 C-6.40956621 7.91061189 -3.2553049 4.12543357 0 0 Z " fill="#1D5CCD" transform="translate(46,149)"/>
<path d="M0 0 C0.99 0.33 1.98 0.66 3 1 C3.125 3.875 3.125 3.875 3 7 C2.34 7.66 1.68 8.32 1 9 C0 8 0 8 -0.09765625 6.15234375 C-0.06510417 4.1015625 -0.03255208 2.05078125 0 0 Z " fill="#1DA9B8" transform="translate(307,84)"/>
<path d="M0 0 C-0.33 1.32 -0.66 2.64 -1 4 C-2.32 4.33 -3.64 4.66 -5 5 C-5.33 4.01 -5.66 3.02 -6 2 C-3 0 -3 0 0 0 Z " fill="#195AC9" transform="translate(84,122)"/>
<path d="M0 0 C-0.75 1.9375 -0.75 1.9375 -2 4 C-4.95319818 5.23843794 -5.87438528 5.04187157 -9 4 C-2.25 0 -2.25 0 0 0 Z " fill="#1F3464" transform="translate(250,32)"/>
<path d="M0 0 C0.99 0.33 1.98 0.66 3 1 C0.03 3.475 0.03 3.475 -3 6 C-3.33 5.01 -3.66 4.02 -4 3 C-2.1875 1.4375 -2.1875 1.4375 0 0 Z " fill="#16B0B7" transform="translate(314,178)"/>
<path d="M0 0 C0.99 0 1.98 0 3 0 C3 1.98 3 3.96 3 6 C2.01 6 1.02 6 0 6 C0 4.02 0 2.04 0 0 Z " fill="#1BC1B4" transform="translate(330,85)"/>
<path d="M0 0 C2.97 0.33 5.94 0.66 9 1 C9 1.99 9 2.98 9 4 C7.35 3.67 5.7 3.34 4 3 C4 2.34 4 1.68 4 1 C2.68 0.67 1.36 0.34 0 0 Z " fill="#16B7AF" transform="translate(294,81)"/>
<path d="M0 0 C-1.98 1.32 -3.96 2.64 -6 4 C-7.32 3.34 -8.64 2.68 -10 2 C-8.71211992 1.46987262 -7.41953322 0.9511671 -6.125 0.4375 C-5.40570313 0.14746094 -4.68640625 -0.14257812 -3.9453125 -0.44140625 C-2 -1 -2 -1 0 0 Z " fill="#CCCFD7" transform="translate(242,184)"/>
<path d="M0 0 C0.99 0.33 1.98 0.66 3 1 C2.625 3.4375 2.625 3.4375 2 6 C1.01 6.495 1.01 6.495 0 7 C0 4.69 0 2.38 0 0 Z " fill="#034BC2" transform="translate(33,175)"/>
</svg>
